<svg width="327" height="381" viewBox="0 0 327 381" fill="none" xmlns="http://www.w3.org/2000/svg">
<path d="M160.923 295.53C166.923 297.691 166.532 306.989 166.95 313.472C168.234 334.315 168.457 355.242 167.62 376.113C166.923 393.799 164.634 413.22 151.882 425.219C147.752 429.115 142.479 432.015 136.87 432.271C131.261 432.555 125.346 429.797 122.695 424.764C120.406 420.414 120.797 415.068 122.416 410.433C124.034 405.799 126.769 401.676 129.224 397.439C144.85 370.398 148.617 338.182 152.05 306.989C152.022 306.932 152.608 292.516 160.923 295.53Z" fill="#F7EEFF" stroke="#A02273" stroke-width="1.37533" stroke-miterlimit="10"/>
<path d="M175.529 295.53C169.529 297.691 169.92 306.989 169.501 313.472C168.218 334.315 167.994 355.243 168.832 376.113C169.529 393.8 171.817 413.22 184.569 425.22C188.699 429.115 193.973 432.015 199.582 432.271C205.191 432.556 211.106 429.798 213.757 424.765C216.045 420.414 215.655 415.069 214.036 410.434C212.418 405.799 209.683 401.676 207.228 397.439C191.601 370.398 187.834 338.182 184.402 306.989C184.43 306.933 183.844 292.516 175.529 295.53Z" fill="#F7EEFF" stroke="#A02273" stroke-width="1.37533" stroke-miterlimit="10"/>
<path d="M159.492 256.233L145.01 337.868C145.01 337.868 141.41 357.516 135.243 364.938C129.077 372.359 120.65 375.487 113.171 369.402C106.753 364.199 106.53 352.91 112.753 347.422C114.818 345.602 117.385 344.408 119.087 342.219C120.566 340.314 121.208 337.868 121.794 335.508C129.049 306.619 136.276 277.701 143.531 248.812C146.126 239.741 162.506 243.495 159.492 256.233Z" fill="#F7EEFF" stroke="#A02273" stroke-width="1.37533" stroke-miterlimit="10"/>
<path d="M182.354 260.157L205.375 339.745C205.375 339.745 211.011 358.881 217.932 365.592C224.852 372.302 233.558 374.463 240.338 367.611C246.17 361.725 245.194 350.465 238.441 345.716C236.209 344.152 233.502 343.214 231.605 341.252C229.93 339.517 229.037 337.157 228.2 334.883C217.959 306.932 207.691 279.009 197.45 251.058C193.906 242.3 178.029 247.817 182.354 260.157Z" fill="#F7EEFF" stroke="#A02273" stroke-width="1.37533" stroke-miterlimit="10"/>
<path d="M147.676 292.913L157.303 243.295C160.484 230.358 181.329 229.391 184.454 246.764L193.048 293.226C192.825 322.002 147.481 321.689 147.676 292.913Z" fill="#FFFAF4"/>
<path d="M193.016 293.226L184.422 246.764C181.297 229.391 160.452 230.358 157.271 243.295L147.645 292.913" stroke="#A02273" stroke-width="1.37533" stroke-miterlimit="10" stroke-linecap="round"/>
<path d="M148.585 293.084C142.53 293.653 123.639 296.383 109.52 306.136C126.262 366.019 212.095 360.303 229.228 313.671C222.838 308.098 211.034 300.932 192.283 294.591C177.27 290.753 165.467 290.554 148.585 293.084Z" fill="#FFFAF4"/>
<path d="M147.748 292.06C141.693 292.629 123.639 296.382 109.52 306.135C126.262 366.018 212.095 360.303 229.228 313.671C222.838 308.097 211.844 299.823 193.092 293.454" stroke="#A02273" stroke-width="1.37533" stroke-miterlimit="10" stroke-linecap="round"/>
<path d="M187.992 273.294L182.393 246.315C179.358 230.874 160.795 232.04 158.133 243.602L152.484 275.347C167.613 277.959 178.561 276.235 187.992 273.294Z" fill="#F5B8BC"/>
<path d="M129.11 -10.1682C111.475 -17.618 90.1843 -6.1021 81.4224 11.4135C72.6605 28.9291 78.4646 50.2833 84.4639 68.9931C80.1388 58.842 72.0187 50.8804 61.8896 47.2408C52.179 43.7434 41.6871 42.9188 31.809 45.7054C15.4852 50.3117 1.95172 65.8653 1.47735 83.3809C1.1146 97.1147 8.67659 110.394 19.5871 118.241C30.4975 126.089 41.2127 128.819 54.4392 127.568C82.0921 124.952 105.894 106.242 124.841 85.2576C137.258 71.5238 148.727 55.6574 151.768 37.0897C154.838 18.5221 145.937 -3.05962 129.11 -10.1682Z" fill="#F7EEFF" stroke="#A02273" stroke-width="1.37533" stroke-miterlimit="10" stroke-linejoin="round"/>
<path d="M108.22 124.014L108.109 123.928C96.4449 114.147 94.7706 96.6028 104.37 84.7172L105.43 83.4092C115.029 71.5237 132.246 69.8176 143.91 79.599L144.021 79.6843C147.593 82.6699 163.582 97.0293 147.844 118.469C132.106 139.908 111.764 126.999 108.22 124.014Z" fill="#E2AEEC" stroke="#A02273" stroke-width="1.37533" stroke-miterlimit="10"/>
<path d="M98.4727 110.792C100.091 115.227 102.854 119.293 106.704 122.535L106.816 122.62C113.931 128.592 124.451 127.539 130.311 120.289L144.905 102.204C150.765 94.9536 149.732 84.2339 142.617 78.2627L142.505 78.1774C140.831 76.7841 139.045 75.6183 137.203 74.6799C128.609 78.1205 120.489 82.7837 113.625 89.0393C107.039 95.0105 101.682 102.489 98.4727 110.792Z" fill="#CF84BC"/>
<path d="M219.69 17.3567C234.423 -8.63238 283.143 -19.6081 298.797 13.6033C309.206 34.6732 302.871 58.2169 285.599 70.1593C292.128 65.1264 300.834 64.1312 309.038 64.245C326.478 64.5293 343.695 70.8986 350.978 87.0493C356.894 100.186 354.745 116.678 344.532 126.715C334.319 136.753 319.419 140.762 305.271 139.767C291.124 138.771 277.646 133.198 265.229 126.204C250.412 117.787 197.59 54.8616 219.69 17.3567Z" fill="#F7EEFF" stroke="#A02273" stroke-width="1.37533" stroke-miterlimit="10" stroke-linejoin="round"/>
<path d="M246.391 128.649L246.503 128.564C258.167 118.782 259.841 101.238 250.242 89.3527L249.182 88.0447C239.583 76.1592 222.366 74.4531 210.702 84.2345L210.59 84.3198C207.102 87.2486 189.579 103.314 206.098 123.929C222.617 144.544 242.764 131.692 246.391 128.649Z" fill="#E2AEEC" stroke="#A02273" stroke-width="1.37533" stroke-miterlimit="10"/>
<path d="M220.06 80.2244C216.74 81.248 213.559 82.9541 210.713 85.3426L210.601 85.4279C203.485 91.3991 202.453 102.119 208.313 109.37L222.907 127.454C228.767 134.705 239.286 135.757 246.402 129.785L246.513 129.7C249.304 127.369 251.508 124.582 253.155 121.54C248.104 104.28 235.687 89.0675 220.06 80.2244Z" fill="#CF84BC"/>
<path d="M170.664 261.835C231.044 261.835 279.992 229.169 279.992 188.873C279.992 148.577 231.044 115.91 170.664 115.91C110.284 115.91 61.3359 148.577 61.3359 188.873C61.3359 229.169 110.284 261.835 170.664 261.835Z" fill="#F7EEFF" stroke="#A02273" stroke-width="1.37533" stroke-miterlimit="10"/>
<path d="M98.9771 134.961C106.009 99.9301 136.424 73.5999 172.867 73.5999C210.007 73.5999 240.869 100.954 247.147 136.952C246.813 162.628 98.6423 160.638 98.9771 134.961Z" fill="#F7EEFF"/>
<path d="M98.9766 134.961C106.008 99.9301 136.424 73.5999 172.866 73.5999C210.007 73.5999 240.869 100.954 247.147 136.952" stroke="#A02273" stroke-width="1.37533" stroke-miterlimit="10" stroke-linecap="round"/>
<path d="M233.23 132.43C228.431 132.203 223.659 131.72 218.86 131.464C218.804 131.464 218.748 131.464 218.692 131.464C218.469 131.464 218.218 131.606 218.134 131.89C217.52 133.539 216.906 135.189 216.32 136.838C216.153 137.321 216.544 137.947 217.074 137.833C222.487 136.496 227.873 135.16 233.286 133.824C233.984 133.682 234.095 132.459 233.23 132.43Z" fill="#61271B"/>
<path d="M228.323 121.199C223.663 122.421 221.738 122.677 217.105 123.872C217.05 123.9 216.994 123.9 216.938 123.928C216.715 124.014 216.547 124.213 216.519 124.526C216.408 126.288 216.938 127.767 216.826 129.53C216.798 130.042 217.357 130.525 217.831 130.241C220.677 128.307 225.951 124.668 228.741 122.564C229.411 122.165 229.16 121 228.323 121.199Z" fill="#61271B"/>
<path d="M220.317 123.332C218.698 119.237 216.41 115.569 213.508 112.413C210.439 109.115 206.839 106.641 203.1 105.304C201.091 104.593 199.026 104.195 196.961 104.138C194.924 104.082 192.887 104.338 190.878 104.906C190.599 104.992 190.431 105.276 190.487 105.56C190.543 105.845 190.822 106.044 191.101 106.015C193.027 105.731 194.924 105.731 196.766 106.044C198.607 106.356 200.365 106.925 202.04 107.807C205.137 109.399 207.983 111.93 210.271 115.143C212.392 118.1 213.982 121.569 214.875 125.152C215.796 128.791 216.605 134.251 216.019 137.492C215.992 137.634 216.019 137.805 216.131 137.947C216.243 138.089 216.354 138.146 216.522 138.174L221.991 136.468C222.019 136.468 222.019 136.468 222.047 136.468C222.186 136.468 222.298 136.412 222.409 136.326C222.521 136.212 222.605 136.07 222.605 135.928C222.8 131.578 222.019 127.711 220.317 123.332Z" fill="#61271B"/>
<path d="M217.397 130.184C217.397 143.691 206.263 155.235 192.534 155.235C178.806 155.235 167.672 143.691 167.672 130.184C167.672 116.678 178.806 104.536 192.534 104.536C206.263 104.536 217.397 116.706 217.397 130.184Z" fill="#F5ECEF" stroke="#61271B" stroke-width="1.37533" stroke-miterlimit="10"/>
<path d="M190.926 142.695C197.491 142.695 202.813 137.272 202.813 130.582C202.813 123.892 197.491 118.469 190.926 118.469C184.361 118.469 179.039 123.892 179.039 130.582C179.039 137.272 184.361 142.695 190.926 142.695Z" fill="#221E1F"/>
<path d="M115.888 119.35C120.548 120.573 122.473 120.829 127.105 122.023C127.161 122.051 127.217 122.051 127.273 122.08C127.496 122.165 127.663 122.364 127.691 122.677C127.803 124.44 127.273 125.918 127.384 127.681C127.412 128.193 126.854 128.677 126.38 128.392C123.533 126.459 118.26 122.819 115.469 120.715C114.799 120.317 115.051 119.123 115.888 119.35Z" fill="#61271B"/>
<path d="M111.241 130.468C116.041 130.411 120.84 130.099 125.64 130.013C125.695 130.013 125.751 130.013 125.807 130.042C126.03 130.07 126.253 130.212 126.365 130.497C126.923 132.174 126.923 133.852 127.453 135.53C127.621 136.013 127.76 136.639 127.23 136.496C121.873 134.961 116.515 133.454 111.157 131.918C110.46 131.691 110.376 130.468 111.241 130.468Z" fill="#61271B"/>
<path d="M154.732 105.503C152.778 104.764 150.769 104.337 148.732 104.252C146.667 104.138 144.574 104.365 142.537 104.934C138.715 105.958 134.92 108.119 131.599 111.161C128.446 114.062 125.879 117.531 123.953 121.483C121.888 125.72 120.772 129.501 120.633 133.852C120.633 134.022 120.689 134.165 120.8 134.278C120.912 134.392 121.051 134.449 121.191 134.449C121.191 134.449 121.191 134.449 121.219 134.449L127.469 136.838C127.637 136.838 127.776 136.752 127.86 136.638C127.972 136.525 127.999 136.354 127.999 136.212C127.665 132.914 128.027 127.312 129.227 123.758C130.399 120.26 132.269 116.933 134.613 114.147C137.152 111.133 140.166 108.83 143.402 107.493C145.133 106.754 146.946 106.327 148.816 106.157C150.685 106.015 152.583 106.157 154.48 106.583C154.759 106.64 155.066 106.47 155.15 106.185C155.15 105.901 155.011 105.588 154.732 105.503Z" fill="#61271B"/>
<path d="M174.295 129.757C174.295 143.264 163.552 155.405 150.325 155.405C137.071 155.405 126.355 143.235 126.355 129.757C126.355 116.279 137.099 105.332 150.325 105.332C163.579 105.332 174.295 116.279 174.295 129.757Z" fill="#F5ECEF" stroke="#61271B" stroke-width="1.37533" stroke-miterlimit="10"/>
<path d="M154.024 142.354C160.589 142.354 165.911 136.93 165.911 130.241C165.911 123.551 160.589 118.128 154.024 118.128C147.459 118.128 142.137 123.551 142.137 130.241C142.137 136.93 147.459 142.354 154.024 142.354Z" fill="#221E1F"/>
<path d="M245.36 188.105C254.39 188.105 261.711 180.645 261.711 171.442C261.711 162.24 254.39 154.78 245.36 154.78C236.329 154.78 229.008 162.24 229.008 171.442C229.008 180.645 236.329 188.105 245.36 188.105Z" fill="#E2AEEC" stroke="#E889D6" stroke-width="1.37533" stroke-miterlimit="10"/>
<path d="M93.8205 191.147C102.851 191.147 110.172 183.687 110.172 174.485C110.172 165.282 102.851 157.822 93.8205 157.822C84.7897 157.822 77.4688 165.282 77.4688 174.485C77.4688 183.687 84.7897 191.147 93.8205 191.147Z" fill="#E2AEEC" stroke="#E889D6" stroke-width="1.37533" stroke-miterlimit="10"/>
<path d="M169.822 159.699C174.384 159.699 178.082 155.93 178.082 151.282C178.082 146.634 174.384 142.865 169.822 142.865C165.26 142.865 161.562 146.634 161.562 151.282C161.562 155.93 165.26 159.699 169.822 159.699Z" fill="#BD0D68" stroke="#68204E" stroke-width="1.37533" stroke-miterlimit="10"/>
<path d="M168.133 206.416C162.525 206.416 156.832 205.421 151.447 203.459C145.001 201.099 139.002 197.374 134.035 192.654C129.486 188.332 129.152 180.939 133.253 176.162C137.355 171.385 144.359 171.015 148.908 175.337C154.516 180.683 162.385 183.555 169.919 183.015C177.481 182.474 184.876 178.494 189.731 172.352C193.666 167.404 200.642 166.75 205.357 170.873C210.045 174.996 210.687 182.389 206.753 187.308C202.483 192.711 196.986 197.289 190.931 200.53C184.876 203.772 178.123 205.762 171.482 206.274C170.366 206.388 169.25 206.416 168.133 206.416Z" fill="#FFB312" stroke="#9B3A2A" stroke-width="1.37533" stroke-miterlimit="10"/>
<path d="M198.667 179.318C191.858 187.877 181.673 193.365 171.126 194.133C160.55 194.901 149.751 190.977 141.91 183.47" stroke="#9B3A2A" stroke-width="1.37533" stroke-miterlimit="10" stroke-linecap="round"/>
<path d="M169.599 159.784C174.9 159.784 179.198 155.404 179.198 150.002C179.198 144.6 174.9 140.221 169.599 140.221C164.298 140.221 160 144.6 160 150.002C160 155.404 164.298 159.784 169.599 159.784Z" fill="#FFB312" stroke="#9B3A2A" stroke-width="1.37533" stroke-miterlimit="10"/>
<path d="M159.809 90.9728C157.465 90.0629 146.247 84.6035 137.82 96.6028" stroke="#A02273" stroke-width="2.75066" stroke-miterlimit="10" stroke-linecap="round"/>
<path d="M184.285 90.6321C186.657 89.779 198.042 84.6608 206.106 96.9445" stroke="#A02273" stroke-width="2.75066" stroke-miterlimit="10" stroke-linecap="round"/>
</svg>
